/* XPM */
static char * brush4_xpm[] = {
"20 20 2 1",
" 	c #FFFFFF",
".	c #000000",
"                    ",
"                    ",
"                    ",
"       ......       ",
"       ......       ",
"     ..........     ",
"     ..........     ",
"   ..............   ",
"   ..............   ",
"   ..............   ",
"   ..............   ",
"   ..............   ",
"   ..............   ",
"     ..........     ",
"     ..........     ",
"       ......       ",
"       ......       ",
"                    ",
"                    ",
"                    "};
